<svg width="862" height="160" viewBox="0 0 862 160" fill="none" xmlns="http://www.w3.org/2000/svg">
<path d="M245.04 85.768C245.104 84.936 245.104 84.104 245.104 83.08C245.104 76.168 241.712 67.784 231.216 67.784C221.36 67.784 216.496 75.464 216.496 85.128C216.496 93.448 220.656 101.768 230.832 101.768C239.728 101.768 243.248 96.2 244.528 92.04H238.832C237.808 94.408 236.144 97.096 231.024 97.096C225.52 97.096 222.192 92.36 222.128 85.768H245.04ZM222.32 81.864C222.896 76.168 225.392 72.2 231.152 72.2C236.656 72.2 239.344 76.488 239.408 81.864H222.32ZM261.252 73.096H266.884V93.448C266.884 98.824 269.06 101.448 274.116 101.448C275.717 101.448 277.636 101.384 278.98 100.872V96.648C278.084 96.84 276.933 96.904 276.165 96.904C273.22 96.904 272.452 95.304 272.452 92.104V73.096H279.621V68.552H272.452V58.952H266.884V68.552H261.252V73.096ZM298.4 54.024V101H304.032V83.272C304.032 76.488 306.592 72.648 312.416 72.648C317.152 72.648 319.456 75.72 319.456 81.224V101H325.088V80.264C325.088 70.6 319.328 67.784 314.144 67.784C308.64 67.784 305.632 70.472 304.032 73.352V54.024H298.4ZM347.45 101H353.082V68.552H347.45V101ZM353.082 61V54.024H347.45V61H353.082ZM395.469 91.08C394.125 94.92 391.757 97.096 387.725 97.096C382.093 97.096 378.957 92.168 378.957 84.744C378.957 77.384 382.221 72.456 387.917 72.456C392.653 72.456 394.701 75.336 395.469 78.6H401.037C400.653 74.44 397.389 67.784 388.045 67.784C378.381 67.784 373.197 75.784 373.197 84.936C373.197 95.368 378.701 101.768 387.661 101.768C395.917 101.768 399.693 96.648 401.037 91.08H395.469ZM444.805 78.408C444.805 71.048 440.389 67.784 432.453 67.784C423.109 67.784 420.357 72.904 419.909 77.384H425.349C425.925 74.888 426.885 72.2 432.26 72.2C438.341 72.2 439.237 75.656 439.237 78.536V81.288H433.733C424.069 81.288 418.373 84.616 418.373 91.848C418.373 96.776 421.637 101.768 429.317 101.768C435.589 101.768 438.213 98.888 439.365 96.776C439.429 98.76 439.621 100.296 439.877 101H445.253C445.061 100.04 444.805 96.904 444.805 93.896V78.408ZM439.301 86.216C439.301 92.104 438.277 97.352 430.469 97.352C426.437 97.352 424.133 94.92 424.133 91.528C424.133 86.984 427.589 85.192 434.053 85.192H439.301V86.216ZM472.92 101V54.024H467.288V101H472.92ZM524.262 90.12C524.262 93.704 524.262 97.352 524.198 101H529.574C529.702 100.104 529.83 98.376 529.83 96.712C531.43 99.848 534.182 101.768 539.366 101.768C548.518 101.768 553.51 93.96 553.51 84.104C553.51 74.504 548.39 67.784 540.198 67.784C534.31 67.784 531.302 70.408 529.894 73.16V54.024H524.262V90.12ZM547.75 84.232C547.75 92.104 544.358 97.032 538.598 97.032C531.75 97.032 529.574 91.656 529.574 84.872C529.574 77.128 532.006 72.52 538.918 72.52C544.55 72.52 547.75 77.192 547.75 84.232ZM579.257 101V54.024H573.625V101H579.257ZM614.605 67.784C604.812 67.784 599.309 75.208 599.309 84.808C599.309 94.6 604.941 101.768 614.221 101.768C624.141 101.768 629.517 94.088 629.517 84.68C629.517 74.504 623.629 67.784 614.605 67.784ZM614.349 72.456C620.429 72.456 623.757 77.512 623.757 84.808C623.757 92.168 620.365 97.096 614.477 97.096C608.653 97.096 605.069 91.912 605.069 84.744C605.069 77.384 608.269 72.456 614.349 72.456ZM676.727 77.896C676.727 74.824 676.791 70.408 676.791 68.552H671.543C671.479 69.192 671.287 71.368 671.223 72.84C670.519 70.664 667.895 67.784 661.687 67.784C653.879 67.784 647.671 74.248 647.671 84.808C647.671 94.344 653.111 100.872 661.111 100.872C666.551 100.872 669.495 98.76 671.223 95.176V97.8C671.223 105.224 669.431 109.896 662.071 109.896C657.911 109.896 655.031 108.04 654.071 104.456H648.375C648.951 108.872 651.959 114.376 661.815 114.376C672.439 114.376 676.727 108.488 676.727 98.056V77.896ZM653.495 84.552C653.495 77.576 656.567 72.52 662.583 72.52C669.495 72.52 671.415 76.872 671.415 84.168C671.415 91.336 669.367 96.072 662.391 96.072C657.079 96.072 653.495 91.4 653.495 84.552ZM725.84 77.896C725.84 74.824 725.904 70.408 725.904 68.552H720.656C720.592 69.192 720.4 71.368 720.336 72.84C719.632 70.664 717.008 67.784 710.8 67.784C702.992 67.784 696.784 74.248 696.784 84.808C696.784 94.344 702.224 100.872 710.224 100.872C715.664 100.872 718.608 98.76 720.336 95.176V97.8C720.336 105.224 718.544 109.896 711.184 109.896C707.024 109.896 704.144 108.04 703.184 104.456H697.488C698.064 108.872 701.072 114.376 710.928 114.376C721.552 114.376 725.84 108.488 725.84 98.056V77.896ZM702.608 84.552C702.608 77.576 705.68 72.52 711.696 72.52C718.608 72.52 720.528 76.872 720.528 84.168C720.528 91.336 718.48 96.072 711.504 96.072C706.192 96.072 702.608 91.4 702.608 84.552ZM774.44 85.768C774.504 84.936 774.504 84.104 774.504 83.08C774.504 76.168 771.112 67.784 760.616 67.784C750.76 67.784 745.896 75.464 745.896 85.128C745.896 93.448 750.056 101.768 760.232 101.768C769.128 101.768 772.648 96.2 773.928 92.04H768.232C767.208 94.408 765.544 97.096 760.424 97.096C754.92 97.096 751.592 92.36 751.528 85.768H774.44ZM751.72 81.864C752.296 76.168 754.792 72.2 760.552 72.2C766.056 72.2 768.744 76.488 768.808 81.864H751.72ZM794.5 101H800.132V85.256C800.132 77.064 804.356 73.544 811.012 73.352V67.784C805.636 67.912 801.796 70.792 800.132 75.144C800.132 72.008 800.004 69.448 799.94 68.552H794.436C794.436 70.28 794.5 72.84 794.5 77.384V101Z" fill="#F2F7EF"/>
<circle cx="80" cy="80" r="80" fill="#E3ECC9"/>
<path d="M66 51L105.5 80L66 109.5" stroke="#97A987" stroke-width="10"/>
</svg>
