<svg width="832" height="160" viewBox="0 0 832 160" fill="none" xmlns="http://www.w3.org/2000/svg">
<path d="M215.656 139H220.57C222.946 139 224.746 137.686 224.746 135.328C224.746 133.492 223.414 132.61 222.532 132.34C223.504 131.998 224.332 131.062 224.332 129.604C224.332 127.876 223.108 126.472 220.462 126.472H215.656V139ZM217.276 131.692V127.858H220.39C221.866 127.858 222.658 128.632 222.658 129.748C222.658 130.972 221.956 131.692 220.138 131.692H217.276ZM217.276 133.06H220.048C222.172 133.06 223.036 133.978 223.036 135.328C223.036 136.894 221.938 137.632 220.372 137.632H217.276V133.06ZM235.233 139V134.428C235.233 134.248 235.269 134.176 235.305 134.104L239.859 126.472H238.077C236.907 128.506 235.035 131.764 234.495 132.844C233.919 131.746 232.101 128.506 230.967 126.472H229.059L233.469 134.068C233.541 134.158 233.559 134.284 233.559 134.41V139H235.233ZM253.192 139H258.106C260.482 139 262.282 137.686 262.282 135.328C262.282 133.492 260.95 132.61 260.068 132.34C261.04 131.998 261.868 131.062 261.868 129.604C261.868 127.876 260.644 126.472 257.998 126.472H253.192V139ZM254.812 131.692V127.858H257.926C259.402 127.858 260.194 128.632 260.194 129.748C260.194 130.972 259.492 131.692 257.674 131.692H254.812ZM254.812 133.06H257.584C259.708 133.06 260.572 133.978 260.572 135.328C260.572 136.894 259.474 137.632 257.908 137.632H254.812V133.06ZM268.429 139H276.385L276.619 137.578H270.085V126.472H268.429V139ZM281.553 126.472V134.05C281.553 137.902 283.821 139.162 286.431 139.162C289.095 139.162 291.345 137.992 291.345 133.924V126.472H289.671V134.014C289.671 136.912 288.339 137.776 286.467 137.776C284.865 137.776 283.245 136.966 283.245 134.014V126.472H281.553ZM306.047 131.728H299.819V127.894H306.353V126.472H298.199V139H306.443L306.659 137.578H299.819V133.15H306.047V131.728ZM312.54 139H314.214V133.852H317.184C319.632 133.852 321.396 132.556 321.396 130.126C321.396 127.84 319.722 126.472 317.292 126.472H312.54V139ZM314.214 127.876H317.166C318.642 127.876 319.686 128.632 319.686 130.162C319.686 131.62 318.822 132.448 317.112 132.448H314.214V127.876ZM331.548 133.492C333.798 133.492 334.302 134.266 334.302 136.048V136.3C334.302 137.488 334.284 138.46 334.518 139H336.138C335.922 138.478 335.958 137.38 335.958 136.516V135.976C335.958 133.816 335.076 133.042 334.05 132.772C335.256 132.448 336.192 131.458 336.192 129.82C336.192 127.876 334.824 126.472 332.25 126.472H327.354V139H328.992V133.492H331.548ZM328.992 127.876H331.908C333.6 127.876 334.464 128.632 334.464 129.964C334.464 131.368 333.636 132.088 331.71 132.088H328.992V127.876ZM342.591 126.472V139H344.247V126.472H342.591ZM352.837 139V133.996C352.837 131.728 352.837 129.604 352.747 128.182H352.783C353.557 129.586 357.625 136.282 359.281 139H361.351V126.472H359.785V131.368C359.785 133.402 359.767 135.382 359.893 136.984H359.875C359.173 135.634 355.267 129.406 353.467 126.472H351.271V139H352.837ZM370.926 139H372.6V127.894H376.65V126.472H366.894V127.894H370.926V139ZM400.762 139.918C399.592 140.62 398.26 140.89 396.766 140.89C393.31 140.89 391.096 138.316 391.114 134.95C391.132 130.918 393.598 128.182 397.45 128.182C400.708 128.182 402.886 130.18 402.886 133.33C402.886 135.688 401.896 137.236 400.528 137.236C399.88 137.236 399.556 136.876 399.826 135.706L400.906 130.648H399.484L399.178 131.854C399.016 131.242 398.458 130.468 397.036 130.468C394.966 130.468 393.328 132.592 393.328 135.328C393.328 137.416 394.426 138.46 395.884 138.46C397.108 138.46 397.828 137.956 398.44 137.074C398.494 138.064 399.214 138.478 400.24 138.478C402.562 138.478 404.254 136.48 404.254 133.258C404.254 129.19 401.176 126.976 397.504 126.976C392.734 126.976 389.692 130.396 389.692 134.932C389.692 139.36 392.626 142.15 396.694 142.15C398.836 142.15 400.222 141.646 401.104 141.034L400.762 139.918ZM397.198 131.674C398.53 131.674 399.016 132.628 398.602 134.518C398.152 136.498 397.342 137.218 396.262 137.218C395.38 137.218 394.858 136.534 394.858 135.238C394.858 133.42 395.74 131.674 397.198 131.674ZM418.645 126.472V134.05C418.645 137.902 420.913 139.162 423.523 139.162C426.187 139.162 428.437 137.992 428.437 133.924V126.472H426.763V134.014C426.763 136.912 425.431 137.776 423.559 137.776C421.957 137.776 420.337 136.966 420.337 134.014V126.472H418.645ZM443.465 135.454C442.997 136.66 442.151 137.776 440.225 137.776C437.327 137.776 436.265 135.184 436.265 132.718C436.265 130.198 437.381 127.678 440.153 127.678C442.133 127.678 443.033 128.704 443.483 130.072H445.139C444.761 127.984 443.159 126.292 440.207 126.292C436.409 126.292 434.519 129.37 434.519 132.772C434.519 136.318 436.409 139.162 440.153 139.162C442.997 139.162 444.581 137.578 445.139 135.454H443.465ZM451.161 126.472V139H452.817V126.472H451.161Z" fill="#F2F7EF"/>
<path d="M246.512 86.216C246.64 85.256 246.64 84.488 246.64 83.4C246.64 75.592 242.928 67.336 231.856 67.336C221.488 67.336 216.304 74.824 216.304 85C216.304 93.576 220.848 101.768 231.472 101.768C241.392 101.768 244.976 95.496 246.192 91.4H238.192C237.296 93.512 235.952 95.432 231.728 95.432C226.8 95.432 224.304 91.144 224.304 86.216H246.512ZM224.496 81.16C224.944 76.488 226.928 73.16 231.792 73.16C236.656 73.16 238.576 76.744 238.64 81.16H224.496ZM262.444 74.184H267.692V92.616C267.692 98.248 269.868 101.448 275.821 101.448C277.612 101.448 279.917 101.384 281.58 100.808V95.24C280.812 95.368 279.853 95.368 279.212 95.368C276.396 95.368 275.628 94.216 275.628 91.464V74.184H282.348V68.104H275.628V58.952H267.692V68.104H262.444V74.184ZM300.639 54.216V101H308.575V83.336C308.575 77.704 310.111 73.864 315.487 73.864C319.647 73.864 321.439 76.424 321.439 81.16V101H329.312V79.944C329.312 70.728 324.128 67.336 318.303 67.336C312.863 67.336 310.111 69.896 308.575 72.328V54.216H300.639ZM350.814 101H358.75V68.104H350.814V101ZM358.75 61.96V54.216H350.814V61.96H358.75ZM400.015 90.568C399.055 93.512 397.135 95.496 393.679 95.496C389.071 95.496 386.383 91.656 386.383 84.488C386.383 77.768 389.007 73.672 393.743 73.672C397.711 73.672 399.439 75.848 400.079 78.792H407.887C407.631 74.888 404.431 67.336 393.935 67.336C383.951 67.336 378.255 75.208 378.255 84.744C378.255 94.856 383.631 101.768 393.487 101.768C402.831 101.768 406.671 96.072 407.887 90.568H400.015ZM453.158 78.472C453.158 70.792 448.486 67.4 439.91 67.336C430.118 67.272 426.726 72.2 426.278 77.576H433.894C434.342 75.144 435.238 73.16 439.59 73.16C444.518 73.16 445.35 75.848 445.35 78.408V80.648H440.358C430.694 80.648 424.742 84.104 424.742 91.528C424.742 96.584 428.07 101.768 435.942 101.768C441.958 101.768 444.326 99.4 445.478 97.416C445.542 98.632 445.734 100.296 445.99 101H453.606C453.414 100.168 453.158 96.008 453.158 92.936V78.472ZM445.414 86.6C445.414 91.464 444.582 95.944 438.054 95.944C434.534 95.944 432.742 93.768 432.742 91.08C432.742 87.368 435.302 85.64 441.126 85.64H445.414V86.6ZM482.65 101V54.216H474.714V101H482.65ZM532.689 90.12C532.689 93.768 532.689 97.416 532.625 101H540.241C540.369 100.168 540.561 98.76 540.561 97.48C542.161 100.104 544.529 101.768 549.521 101.768C558.929 101.768 563.857 93.576 563.857 83.912C563.857 74.504 559.121 67.336 550.417 67.336C544.849 67.336 542.033 69.64 540.625 72.008V54.216H532.689V90.12ZM555.729 84.104C555.729 90.888 552.977 95.368 547.985 95.368C542.097 95.368 540.241 90.696 540.241 84.68C540.241 77.64 542.353 73.8 548.113 73.8C553.297 73.8 555.729 78.088 555.729 84.104ZM591.238 101V54.216H583.302V101H591.238ZM626.871 67.336C616.631 67.336 610.679 74.632 610.679 84.616C610.679 94.472 616.503 101.768 626.487 101.768C636.791 101.768 642.551 94.28 642.551 84.488C642.551 74.184 636.407 67.336 626.871 67.336ZM626.551 73.672C631.671 73.672 634.423 77.512 634.423 84.616C634.423 91.272 631.671 95.432 626.679 95.432C621.751 95.432 618.743 91.208 618.743 84.552C618.743 77.384 621.687 73.672 626.551 73.672ZM691.331 77.576C691.331 74.376 691.331 70.664 691.395 68.104H683.843C683.779 68.68 683.587 70.728 683.523 71.816C682.947 70.088 680.515 67.336 674.627 67.336C666.499 67.336 660.291 74.184 660.291 84.616C660.291 93.768 665.475 100.68 673.923 100.68C678.979 100.68 681.795 98.824 683.523 95.688V97.608C683.523 104.456 682.179 108.424 675.715 108.424C672.003 108.424 669.891 106.76 669.123 104.072H661.059C661.443 108.04 664.067 114.376 675.395 114.376C687.235 114.376 691.331 107.912 691.331 97.352V77.576ZM668.483 84.296C668.483 77.512 671.619 73.8 676.291 73.8C682.499 73.8 683.779 77.768 683.779 83.976C683.779 90.056 682.115 94.216 676.099 94.216C671.619 94.216 668.483 90.376 668.483 84.296ZM741.694 77.576C741.694 74.376 741.694 70.664 741.758 68.104H734.206C734.142 68.68 733.95 70.728 733.886 71.816C733.31 70.088 730.878 67.336 724.99 67.336C716.862 67.336 710.654 74.184 710.654 84.616C710.654 93.768 715.838 100.68 724.286 100.68C729.342 100.68 732.158 98.824 733.886 95.688V97.608C733.886 104.456 732.542 108.424 726.078 108.424C722.366 108.424 720.254 106.76 719.486 104.072H711.422C711.806 108.04 714.43 114.376 725.758 114.376C737.598 114.376 741.694 107.912 741.694 97.352V77.576ZM718.846 84.296C718.846 77.512 721.982 73.8 726.654 73.8C732.862 73.8 734.142 77.768 734.142 83.976C734.142 90.056 732.478 94.216 726.462 94.216C721.982 94.216 718.846 90.376 718.846 84.296ZM791.412 86.216C791.54 85.256 791.54 84.488 791.54 83.4C791.54 75.592 787.828 67.336 776.756 67.336C766.388 67.336 761.204 74.824 761.204 85C761.204 93.576 765.748 101.768 776.372 101.768C786.292 101.768 789.876 95.496 791.092 91.4H783.092C782.196 93.512 780.852 95.432 776.628 95.432C771.7 95.432 769.204 91.144 769.204 86.216H791.412ZM769.396 81.16C769.844 76.488 771.828 73.16 776.692 73.16C781.556 73.16 783.476 76.744 783.54 81.16H769.396ZM811.052 101H818.988V86.088C818.988 77.32 823.084 74.952 829.74 75.016V67.336C824.172 67.4 820.524 70.216 818.988 74.184C818.988 71.944 818.924 68.872 818.796 68.104H810.988C811.052 70.536 811.052 73.288 811.052 77V101Z" fill="#F2F7EF"/>
<circle cx="80" cy="80" r="80" fill="#E3ECC9"/>
<path d="M66 51L105.5 80L66 109.5" stroke="#97A987" stroke-width="10"/>
</svg>
