<svg width="221" height="63" viewBox="0 0 221 63" fill="none" xmlns="http://www.w3.org/2000/svg">
<circle cx="28.9677" cy="28.7338" r="28.7338" fill="#646A61"/>
<path d="M65.2349 23.5176H69.2561V37.6408C69.2561 41.9563 70.9234 44.4082 75.4841 44.4082C76.8572 44.4082 78.6226 44.3592 79.8976 43.9178V39.6514C79.3091 39.7495 78.5735 39.7495 78.0831 39.7495C75.9254 39.7495 75.3369 38.8668 75.3369 36.7581V23.5176H80.486V18.8589H75.3369V11.8463H69.2561V18.8589H65.2349V23.5176ZM94.5012 8.21746V44.0649H100.582V30.5302C100.582 26.2148 101.759 23.2724 105.878 23.2724C109.066 23.2724 110.439 25.234 110.439 28.8629V44.0649H116.471V27.9311C116.471 20.8695 112.499 18.2704 108.036 18.2704C103.868 18.2704 101.759 20.232 100.582 22.0955V8.21746H94.5012ZM132.947 44.0649H139.028V18.8589H132.947V44.0649ZM139.028 14.1512V8.21746H132.947V14.1512H139.028ZM170.646 36.0716C169.911 38.3274 168.44 39.8476 165.792 39.8476C162.261 39.8476 160.201 36.9053 160.201 31.4129C160.201 26.2638 162.212 23.1253 165.841 23.1253C168.881 23.1253 170.205 24.7926 170.696 27.0484H176.678C176.482 24.057 174.03 18.2704 165.988 18.2704C158.338 18.2704 153.973 24.3022 153.973 31.609C153.973 39.3572 158.092 44.6534 165.644 44.6534C172.804 44.6534 175.747 40.2889 176.678 36.0716H170.646Z" fill="#97A987"/>
<path d="M191.995 44.0649H206.658C213.572 44.0649 218.28 39.9947 218.28 33.9629C218.28 29.3533 215.044 26.9503 212.739 26.1167C215.142 25.1359 217.25 22.6349 217.25 18.7608C217.25 14.2493 214.063 10.13 206.217 10.13H191.995V44.0649ZM198.272 23.7628V15.132H205.726C208.963 15.132 210.924 16.7012 210.924 19.3983C210.924 22.0955 209.355 23.7628 205.383 23.7628H198.272ZM198.272 28.7648H205.138C209.747 28.7648 211.758 30.7754 211.758 33.8158C211.758 37.2976 209.551 39.063 205.481 39.063H198.272V28.7648Z" fill="#646A61"/>
<path d="M42.769 29.672C42.867 28.9364 42.867 28.3479 42.867 27.5143C42.867 21.5315 40.0228 15.2055 31.539 15.2055C23.5947 15.2055 19.6226 20.9431 19.6226 28.7403C19.6226 35.3115 23.1043 41.5885 31.2448 41.5885C38.8459 41.5885 41.592 36.7826 42.5238 33.6442H36.3939C35.7074 35.2624 34.6775 36.7336 31.441 36.7336C27.665 36.7336 25.7525 33.448 25.7525 29.672H42.769ZM25.8996 25.7979C26.2428 22.2181 27.763 19.6681 31.49 19.6681C35.217 19.6681 36.6881 22.4142 36.7372 25.7979H25.8996Z" fill="#F2F7EF"/>
</svg>
